G04 #@! TF.FileFunction,Copper,L1,Top,Signal*
%FSLAX46Y46*%
G04 Gerber Fmt 4.6, Leading zero omitted, Abs format (unit mm)*
G04 Created by KiCad (PCBNEW (2015-07-07 BZR 5906)-product) date Wed 19 Aug 2015 11:48:38 CEST*
%MOMM*%
G01*
G04 APERTURE LIST*
%ADD10C,0.100000*%
%ADD11R,1.900000X1.900000*%
%ADD12C,1.900000*%
%ADD13C,2.500000*%
%ADD14R,2.032000X1.727200*%
%ADD15C,1.998980*%
%ADD16C,1.016000*%
%ADD17C,0.254000*%
G04 APERTURE END LIST*
D10*
D11*
X130556000Y-93472000D03*
D12*
X133096000Y-93472000D03*
X120000000Y-106132000D03*
X120000000Y-103632000D03*
X120000000Y-101132000D03*
X134500000Y-106132000D03*
X134500000Y-101132000D03*
D13*
X127000000Y-110232000D03*
X127000000Y-97432000D03*
D14*
X116840000Y-101092000D03*
D12*
X116840000Y-103632000D03*
X116840000Y-106172000D03*
D11*
X136652000Y-106172000D03*
D12*
X136652000Y-103632000D03*
D15*
X116840000Y-93472000D03*
D12*
X127000000Y-93472000D03*
X136652000Y-88900000D03*
X136652000Y-99060000D03*
D16*
X127000000Y-93472000D02*
X130556000Y-93472000D01*
X133096000Y-93472000D02*
X133096000Y-99728000D01*
X133096000Y-99728000D02*
X134500000Y-101132000D01*
X134500000Y-101132000D02*
X135596000Y-101132000D01*
X136144000Y-100584000D02*
X136652000Y-100584000D01*
X136652000Y-100076000D02*
X136144000Y-100584000D01*
X135596000Y-101132000D02*
X136652000Y-100076000D01*
X136652000Y-103632000D02*
X136652000Y-100584000D01*
X136652000Y-100584000D02*
X136652000Y-99060000D01*
X120000000Y-106132000D02*
X116880000Y-106132000D01*
X116880000Y-106132000D02*
X116840000Y-106172000D01*
X120000000Y-103632000D02*
X121368000Y-103632000D01*
X116840000Y-96840000D02*
X116840000Y-93472000D01*
X117500000Y-97500000D02*
X116840000Y-96840000D01*
X120000000Y-97500000D02*
X117500000Y-97500000D01*
X122500000Y-100000000D02*
X120000000Y-97500000D01*
X122500000Y-102500000D02*
X122500000Y-100000000D01*
X121368000Y-103632000D02*
X122500000Y-102500000D01*
X120000000Y-103632000D02*
X116840000Y-103632000D01*
X120000000Y-101132000D02*
X116880000Y-101132000D01*
X116880000Y-101132000D02*
X116840000Y-101092000D01*
X136652000Y-106172000D02*
X134540000Y-106172000D01*
X134540000Y-106172000D02*
X134500000Y-106132000D01*
D17*
G36*
X135832815Y-87694734D02*
X136652000Y-88513920D01*
X137471185Y-87694734D01*
X137389555Y-87503000D01*
X138557000Y-87503000D01*
X138557000Y-112141000D01*
X127981145Y-112141000D01*
X128210063Y-112046413D01*
X128812298Y-111445228D01*
X129138627Y-110659340D01*
X129139370Y-109808393D01*
X128814413Y-109021937D01*
X128213228Y-108419702D01*
X127427340Y-108093373D01*
X126576393Y-108092630D01*
X125789937Y-108417587D01*
X125187702Y-109018772D01*
X124861373Y-109804660D01*
X124860630Y-110655607D01*
X125185587Y-111442063D01*
X125786772Y-112044298D01*
X126019656Y-112141000D01*
X114935000Y-112141000D01*
X114935000Y-102045367D01*
X114983352Y-102294572D01*
X115179057Y-102592498D01*
X115474503Y-102791927D01*
X115616778Y-102820460D01*
X115390911Y-102916622D01*
X115227454Y-103525619D01*
X115309491Y-104150811D01*
X115390911Y-104347378D01*
X115634732Y-104451184D01*
X115505996Y-104579920D01*
X115668781Y-104742705D01*
X115281881Y-105128930D01*
X115001320Y-105804595D01*
X115000682Y-106536195D01*
X115280063Y-107212349D01*
X115796930Y-107730119D01*
X116472595Y-108010680D01*
X117204195Y-108011318D01*
X117880349Y-107731937D01*
X118083641Y-107529000D01*
X118796092Y-107529000D01*
X118956930Y-107690119D01*
X119632595Y-107970680D01*
X120364195Y-107971318D01*
X121040349Y-107691937D01*
X121558119Y-107175070D01*
X121838680Y-106499405D01*
X121839318Y-105767805D01*
X121559937Y-105091651D01*
X121191427Y-104722497D01*
X121334004Y-104579920D01*
X121205268Y-104451184D01*
X121449089Y-104347378D01*
X121612546Y-103738381D01*
X121530509Y-103113189D01*
X121449089Y-102916622D01*
X121205268Y-102812816D01*
X121334004Y-102684080D01*
X121191237Y-102541313D01*
X121558119Y-102175070D01*
X121838680Y-101499405D01*
X121839318Y-100767805D01*
X121559937Y-100091651D01*
X121043070Y-99573881D01*
X120367405Y-99293320D01*
X119635805Y-99292682D01*
X118959651Y-99572063D01*
X118796429Y-99735000D01*
X118595206Y-99735000D01*
X118500943Y-99591502D01*
X118205497Y-99392073D01*
X117856000Y-99321983D01*
X115824000Y-99321983D01*
X115485028Y-99387752D01*
X115187102Y-99583457D01*
X114987673Y-99878903D01*
X114935000Y-100141552D01*
X114935000Y-97855607D01*
X124860630Y-97855607D01*
X125185587Y-98642063D01*
X125786772Y-99244298D01*
X126572660Y-99570627D01*
X127423607Y-99571370D01*
X128210063Y-99246413D01*
X128812298Y-98645228D01*
X129138627Y-97859340D01*
X129139370Y-97008393D01*
X128814413Y-96221937D01*
X128213228Y-95619702D01*
X127427340Y-95293373D01*
X127407667Y-95293356D01*
X128040349Y-95031937D01*
X128203571Y-94869000D01*
X128836315Y-94869000D01*
X128961057Y-95058898D01*
X129256503Y-95258327D01*
X129606000Y-95328417D01*
X131506000Y-95328417D01*
X131699000Y-95290970D01*
X131699000Y-99728000D01*
X131805340Y-100262609D01*
X132108172Y-100715828D01*
X132660881Y-101268537D01*
X132660682Y-101496195D01*
X132940063Y-102172349D01*
X133456930Y-102690119D01*
X134132595Y-102970680D01*
X134864195Y-102971318D01*
X134949784Y-102935953D01*
X134813320Y-103264595D01*
X134812682Y-103996195D01*
X134949544Y-104327427D01*
X134867405Y-104293320D01*
X134135805Y-104292682D01*
X133459651Y-104572063D01*
X132941881Y-105088930D01*
X132661320Y-105764595D01*
X132660682Y-106496195D01*
X132940063Y-107172349D01*
X133456930Y-107690119D01*
X134132595Y-107970680D01*
X134864195Y-107971318D01*
X135179030Y-107841231D01*
X135352503Y-107958327D01*
X135702000Y-108028417D01*
X137602000Y-108028417D01*
X137940972Y-107962648D01*
X138238898Y-107766943D01*
X138438327Y-107471497D01*
X138508417Y-107122000D01*
X138508417Y-105222000D01*
X138442648Y-104883028D01*
X138247270Y-104585600D01*
X138490680Y-103999405D01*
X138491318Y-103267805D01*
X138211937Y-102591651D01*
X138049000Y-102428429D01*
X138049000Y-100263908D01*
X138210119Y-100103070D01*
X138490680Y-99427405D01*
X138491318Y-98695805D01*
X138211937Y-98019651D01*
X137695070Y-97501881D01*
X137019405Y-97221320D01*
X136287805Y-97220682D01*
X135611651Y-97500063D01*
X135093881Y-98016930D01*
X134813320Y-98692595D01*
X134812796Y-99293272D01*
X134636775Y-99293119D01*
X134493000Y-99149344D01*
X134493000Y-94675908D01*
X134654119Y-94515070D01*
X134934680Y-93839405D01*
X134935318Y-93107805D01*
X134655937Y-92431651D01*
X134139070Y-91913881D01*
X133463405Y-91633320D01*
X132731805Y-91632682D01*
X132139536Y-91877402D01*
X131855497Y-91685673D01*
X131506000Y-91615583D01*
X129606000Y-91615583D01*
X129267028Y-91681352D01*
X128969102Y-91877057D01*
X128835488Y-92075000D01*
X128203908Y-92075000D01*
X128043070Y-91913881D01*
X127367405Y-91633320D01*
X126635805Y-91632682D01*
X125959651Y-91912063D01*
X125441881Y-92428930D01*
X125161320Y-93104595D01*
X125160682Y-93836195D01*
X125440063Y-94512349D01*
X125956930Y-95030119D01*
X126589153Y-95292641D01*
X126576393Y-95292630D01*
X125789937Y-95617587D01*
X125187702Y-96218772D01*
X124861373Y-97004660D01*
X124860630Y-97855607D01*
X114935000Y-97855607D01*
X114935000Y-94713567D01*
X115984513Y-94713567D01*
X116094543Y-94962488D01*
X116721673Y-95134306D01*
X117366817Y-95053051D01*
X117585457Y-94962488D01*
X117695487Y-94713567D01*
X116840000Y-93858080D01*
X115984513Y-94713567D01*
X114935000Y-94713567D01*
X114935000Y-93353673D01*
X115177694Y-93353673D01*
X115258949Y-93998817D01*
X115349512Y-94217457D01*
X115598433Y-94327487D01*
X116453920Y-93472000D01*
X117226080Y-93472000D01*
X118081567Y-94327487D01*
X118330488Y-94217457D01*
X118502306Y-93590327D01*
X118421051Y-92945183D01*
X118330488Y-92726543D01*
X118081567Y-92616513D01*
X117226080Y-93472000D01*
X116453920Y-93472000D01*
X116453920Y-93472000D01*
X115598433Y-92616513D01*
X115349512Y-92726543D01*
X115177694Y-93353673D01*
X114935000Y-93353673D01*
X114935000Y-92230433D01*
X115984513Y-92230433D01*
X116840000Y-93085920D01*
X117695487Y-92230433D01*
X117585457Y-91981512D01*
X116958327Y-91809694D01*
X116313183Y-91890949D01*
X116094543Y-91981512D01*
X115984513Y-92230433D01*
X114935000Y-92230433D01*
X114935000Y-90105266D01*
X135832815Y-90105266D01*
X135936622Y-90349089D01*
X136545619Y-90512546D01*
X137170811Y-90430509D01*
X137367378Y-90349089D01*
X137471185Y-90105266D01*
X136652000Y-89286080D01*
X135832815Y-90105266D01*
X114935000Y-90105266D01*
X114935000Y-88793619D01*
X135039454Y-88793619D01*
X135121491Y-89418811D01*
X135202911Y-89615378D01*
X135446734Y-89719185D01*
X136265920Y-88900000D01*
X137038080Y-88900000D01*
X137857266Y-89719185D01*
X138101089Y-89615378D01*
X138264546Y-89006381D01*
X138182509Y-88381189D01*
X138101089Y-88184622D01*
X137857266Y-88080815D01*
X137038080Y-88900000D01*
X136265920Y-88900000D01*
X136265920Y-88900000D01*
X135446734Y-88080815D01*
X135202911Y-88184622D01*
X135039454Y-88793619D01*
X114935000Y-88793619D01*
X114935000Y-87503000D01*
X135914445Y-87503000D01*
X135832815Y-87694734D01*
X135832815Y-87694734D01*
G37*
X135832815Y-87694734D02*
X136652000Y-88513920D01*
X137471185Y-87694734D01*
X137389555Y-87503000D01*
X138557000Y-87503000D01*
X138557000Y-112141000D01*
X127981145Y-112141000D01*
X128210063Y-112046413D01*
X128812298Y-111445228D01*
X129138627Y-110659340D01*
X129139370Y-109808393D01*
X128814413Y-109021937D01*
X128213228Y-108419702D01*
X127427340Y-108093373D01*
X126576393Y-108092630D01*
X125789937Y-108417587D01*
X125187702Y-109018772D01*
X124861373Y-109804660D01*
X124860630Y-110655607D01*
X125185587Y-111442063D01*
X125786772Y-112044298D01*
X126019656Y-112141000D01*
X114935000Y-112141000D01*
X114935000Y-102045367D01*
X114983352Y-102294572D01*
X115179057Y-102592498D01*
X115474503Y-102791927D01*
X115616778Y-102820460D01*
X115390911Y-102916622D01*
X115227454Y-103525619D01*
X115309491Y-104150811D01*
X115390911Y-104347378D01*
X115634732Y-104451184D01*
X115505996Y-104579920D01*
X115668781Y-104742705D01*
X115281881Y-105128930D01*
X115001320Y-105804595D01*
X115000682Y-106536195D01*
X115280063Y-107212349D01*
X115796930Y-107730119D01*
X116472595Y-108010680D01*
X117204195Y-108011318D01*
X117880349Y-107731937D01*
X118083641Y-107529000D01*
X118796092Y-107529000D01*
X118956930Y-107690119D01*
X119632595Y-107970680D01*
X120364195Y-107971318D01*
X121040349Y-107691937D01*
X121558119Y-107175070D01*
X121838680Y-106499405D01*
X121839318Y-105767805D01*
X121559937Y-105091651D01*
X121191427Y-104722497D01*
X121334004Y-104579920D01*
X121205268Y-104451184D01*
X121449089Y-104347378D01*
X121612546Y-103738381D01*
X121530509Y-103113189D01*
X121449089Y-102916622D01*
X121205268Y-102812816D01*
X121334004Y-102684080D01*
X121191237Y-102541313D01*
X121558119Y-102175070D01*
X121838680Y-101499405D01*
X121839318Y-100767805D01*
X121559937Y-100091651D01*
X121043070Y-99573881D01*
X120367405Y-99293320D01*
X119635805Y-99292682D01*
X118959651Y-99572063D01*
X118796429Y-99735000D01*
X118595206Y-99735000D01*
X118500943Y-99591502D01*
X118205497Y-99392073D01*
X117856000Y-99321983D01*
X115824000Y-99321983D01*
X115485028Y-99387752D01*
X115187102Y-99583457D01*
X114987673Y-99878903D01*
X114935000Y-100141552D01*
X114935000Y-97855607D01*
X124860630Y-97855607D01*
X125185587Y-98642063D01*
X125786772Y-99244298D01*
X126572660Y-99570627D01*
X127423607Y-99571370D01*
X128210063Y-99246413D01*
X128812298Y-98645228D01*
X129138627Y-97859340D01*
X129139370Y-97008393D01*
X128814413Y-96221937D01*
X128213228Y-95619702D01*
X127427340Y-95293373D01*
X127407667Y-95293356D01*
X128040349Y-95031937D01*
X128203571Y-94869000D01*
X128836315Y-94869000D01*
X128961057Y-95058898D01*
X129256503Y-95258327D01*
X129606000Y-95328417D01*
X131506000Y-95328417D01*
X131699000Y-95290970D01*
X131699000Y-99728000D01*
X131805340Y-100262609D01*
X132108172Y-100715828D01*
X132660881Y-101268537D01*
X132660682Y-101496195D01*
X132940063Y-102172349D01*
X133456930Y-102690119D01*
X134132595Y-102970680D01*
X134864195Y-102971318D01*
X134949784Y-102935953D01*
X134813320Y-103264595D01*
X134812682Y-103996195D01*
X134949544Y-104327427D01*
X134867405Y-104293320D01*
X134135805Y-104292682D01*
X133459651Y-104572063D01*
X132941881Y-105088930D01*
X132661320Y-105764595D01*
X132660682Y-106496195D01*
X132940063Y-107172349D01*
X133456930Y-107690119D01*
X134132595Y-107970680D01*
X134864195Y-107971318D01*
X135179030Y-107841231D01*
X135352503Y-107958327D01*
X135702000Y-108028417D01*
X137602000Y-108028417D01*
X137940972Y-107962648D01*
X138238898Y-107766943D01*
X138438327Y-107471497D01*
X138508417Y-107122000D01*
X138508417Y-105222000D01*
X138442648Y-104883028D01*
X138247270Y-104585600D01*
X138490680Y-103999405D01*
X138491318Y-103267805D01*
X138211937Y-102591651D01*
X138049000Y-102428429D01*
X138049000Y-100263908D01*
X138210119Y-100103070D01*
X138490680Y-99427405D01*
X138491318Y-98695805D01*
X138211937Y-98019651D01*
X137695070Y-97501881D01*
X137019405Y-97221320D01*
X136287805Y-97220682D01*
X135611651Y-97500063D01*
X135093881Y-98016930D01*
X134813320Y-98692595D01*
X134812796Y-99293272D01*
X134636775Y-99293119D01*
X134493000Y-99149344D01*
X134493000Y-94675908D01*
X134654119Y-94515070D01*
X134934680Y-93839405D01*
X134935318Y-93107805D01*
X134655937Y-92431651D01*
X134139070Y-91913881D01*
X133463405Y-91633320D01*
X132731805Y-91632682D01*
X132139536Y-91877402D01*
X131855497Y-91685673D01*
X131506000Y-91615583D01*
X129606000Y-91615583D01*
X129267028Y-91681352D01*
X128969102Y-91877057D01*
X128835488Y-92075000D01*
X128203908Y-92075000D01*
X128043070Y-91913881D01*
X127367405Y-91633320D01*
X126635805Y-91632682D01*
X125959651Y-91912063D01*
X125441881Y-92428930D01*
X125161320Y-93104595D01*
X125160682Y-93836195D01*
X125440063Y-94512349D01*
X125956930Y-95030119D01*
X126589153Y-95292641D01*
X126576393Y-95292630D01*
X125789937Y-95617587D01*
X125187702Y-96218772D01*
X124861373Y-97004660D01*
X124860630Y-97855607D01*
X114935000Y-97855607D01*
X114935000Y-94713567D01*
X115984513Y-94713567D01*
X116094543Y-94962488D01*
X116721673Y-95134306D01*
X117366817Y-95053051D01*
X117585457Y-94962488D01*
X117695487Y-94713567D01*
X116840000Y-93858080D01*
X115984513Y-94713567D01*
X114935000Y-94713567D01*
X114935000Y-93353673D01*
X115177694Y-93353673D01*
X115258949Y-93998817D01*
X115349512Y-94217457D01*
X115598433Y-94327487D01*
X116453920Y-93472000D01*
X117226080Y-93472000D01*
X118081567Y-94327487D01*
X118330488Y-94217457D01*
X118502306Y-93590327D01*
X118421051Y-92945183D01*
X118330488Y-92726543D01*
X118081567Y-92616513D01*
X117226080Y-93472000D01*
X116453920Y-93472000D01*
X116453920Y-93472000D01*
X115598433Y-92616513D01*
X115349512Y-92726543D01*
X115177694Y-93353673D01*
X114935000Y-93353673D01*
X114935000Y-92230433D01*
X115984513Y-92230433D01*
X116840000Y-93085920D01*
X117695487Y-92230433D01*
X117585457Y-91981512D01*
X116958327Y-91809694D01*
X116313183Y-91890949D01*
X116094543Y-91981512D01*
X115984513Y-92230433D01*
X114935000Y-92230433D01*
X114935000Y-90105266D01*
X135832815Y-90105266D01*
X135936622Y-90349089D01*
X136545619Y-90512546D01*
X137170811Y-90430509D01*
X137367378Y-90349089D01*
X137471185Y-90105266D01*
X136652000Y-89286080D01*
X135832815Y-90105266D01*
X114935000Y-90105266D01*
X114935000Y-88793619D01*
X135039454Y-88793619D01*
X135121491Y-89418811D01*
X135202911Y-89615378D01*
X135446734Y-89719185D01*
X136265920Y-88900000D01*
X137038080Y-88900000D01*
X137857266Y-89719185D01*
X138101089Y-89615378D01*
X138264546Y-89006381D01*
X138182509Y-88381189D01*
X138101089Y-88184622D01*
X137857266Y-88080815D01*
X137038080Y-88900000D01*
X136265920Y-88900000D01*
X136265920Y-88900000D01*
X135446734Y-88080815D01*
X135202911Y-88184622D01*
X135039454Y-88793619D01*
X114935000Y-88793619D01*
X114935000Y-87503000D01*
X135914445Y-87503000D01*
X135832815Y-87694734D01*
G36*
X117240223Y-103617858D02*
X117226080Y-103632000D01*
X117240223Y-103646142D01*
X116854143Y-104032223D01*
X116840000Y-104018080D01*
X116825858Y-104032223D01*
X116439777Y-103646142D01*
X116453920Y-103632000D01*
X116439777Y-103617858D01*
X116825858Y-103231778D01*
X116840000Y-103245920D01*
X116854143Y-103231778D01*
X117240223Y-103617858D01*
X117240223Y-103617858D01*
G37*
X117240223Y-103617858D02*
X117226080Y-103632000D01*
X117240223Y-103646142D01*
X116854143Y-104032223D01*
X116840000Y-104018080D01*
X116825858Y-104032223D01*
X116439777Y-103646142D01*
X116453920Y-103632000D01*
X116439777Y-103617858D01*
X116825858Y-103231778D01*
X116840000Y-103245920D01*
X116854143Y-103231778D01*
X117240223Y-103617858D01*
G36*
X120000000Y-103245920D02*
X120014143Y-103231778D01*
X120400223Y-103617858D01*
X120386080Y-103632000D01*
X120400223Y-103646142D01*
X120014142Y-104032223D01*
X120000000Y-104018080D01*
X119985858Y-104032223D01*
X119599777Y-103646142D01*
X119613920Y-103632000D01*
X119599777Y-103617858D01*
X119985858Y-103231777D01*
X120000000Y-103245920D01*
X120000000Y-103245920D01*
G37*
X120000000Y-103245920D02*
X120014143Y-103231778D01*
X120400223Y-103617858D01*
X120386080Y-103632000D01*
X120400223Y-103646142D01*
X120014142Y-104032223D01*
X120000000Y-104018080D01*
X119985858Y-104032223D01*
X119599777Y-103646142D01*
X119613920Y-103632000D01*
X119599777Y-103617858D01*
X119985858Y-103231777D01*
X120000000Y-103245920D01*
M02*
